<mxfile host="65bd71144e">
    <diagram id="yIojFCvLL0zMOGTI41Vq" name="第 1 页">
        <mxGraphModel dx="904" dy="440" grid="1" gridSize="10" guides="1" tooltips="1" connect="1" arrows="1" fold="1" page="1" pageScale="1" pageWidth="827" pageHeight="1169" math="0" shadow="0">
            <root>
                <mxCell id="0"/>
                <mxCell id="1" parent="0"/>
                <mxCell id="2" value="A" style="ellipse;whiteSpace=wrap;html=1;aspect=fixed;" parent="1" vertex="1">
                    <mxGeometry x="270" y="100" width="30" height="30" as="geometry"/>
                </mxCell>
                <mxCell id="3" value="B" style="ellipse;whiteSpace=wrap;html=1;aspect=fixed;" parent="1" vertex="1">
                    <mxGeometry x="220" y="170" width="30" height="30" as="geometry"/>
                </mxCell>
                <mxCell id="5" value="E" style="ellipse;whiteSpace=wrap;html=1;aspect=fixed;" parent="1" vertex="1">
                    <mxGeometry x="170" y="240" width="30" height="30" as="geometry"/>
                </mxCell>
                <mxCell id="6" value="I" style="ellipse;whiteSpace=wrap;html=1;aspect=fixed;" parent="1" vertex="1">
                    <mxGeometry x="170" y="340" width="30" height="30" as="geometry"/>
                </mxCell>
                <mxCell id="7" value="F" style="ellipse;whiteSpace=wrap;html=1;aspect=fixed;" parent="1" vertex="1">
                    <mxGeometry x="260" y="240" width="30" height="30" as="geometry"/>
                </mxCell>
                <mxCell id="8" value="C" style="ellipse;whiteSpace=wrap;html=1;aspect=fixed;" parent="1" vertex="1">
                    <mxGeometry x="330" y="170" width="30" height="30" as="geometry"/>
                </mxCell>
                <mxCell id="9" value="D" style="ellipse;whiteSpace=wrap;html=1;aspect=fixed;" parent="1" vertex="1">
                    <mxGeometry x="430" y="170" width="30" height="30" as="geometry"/>
                </mxCell>
                <mxCell id="10" value="G" style="ellipse;whiteSpace=wrap;html=1;aspect=fixed;" parent="1" vertex="1">
                    <mxGeometry x="400" y="240" width="30" height="30" as="geometry"/>
                </mxCell>
                <mxCell id="15" value="" style="endArrow=none;html=1;entryX=0;entryY=1;entryDx=0;entryDy=0;exitX=1;exitY=0;exitDx=0;exitDy=0;" parent="1" source="3" target="2" edge="1">
                    <mxGeometry width="50" height="50" relative="1" as="geometry">
                        <mxPoint x="260" y="180" as="sourcePoint"/>
                        <mxPoint x="310" y="130" as="targetPoint"/>
                    </mxGeometry>
                </mxCell>
                <mxCell id="16" value="" style="endArrow=none;html=1;entryX=0;entryY=1;entryDx=0;entryDy=0;exitX=1;exitY=0;exitDx=0;exitDy=0;" parent="1" source="5" target="3" edge="1">
                    <mxGeometry width="50" height="50" relative="1" as="geometry">
                        <mxPoint x="255.60660171779818" y="184.39339828220182" as="sourcePoint"/>
                        <mxPoint x="284.3933982822018" y="135.60660171779818" as="targetPoint"/>
                    </mxGeometry>
                </mxCell>
                <mxCell id="17" value="" style="endArrow=none;html=1;entryX=0.5;entryY=0;entryDx=0;entryDy=0;exitX=0.5;exitY=1;exitDx=0;exitDy=0;" parent="1" source="5" target="6" edge="1">
                    <mxGeometry width="50" height="50" relative="1" as="geometry">
                        <mxPoint x="265.6066017177982" y="194.39339828220182" as="sourcePoint"/>
                        <mxPoint x="294.3933982822018" y="145.60660171779818" as="targetPoint"/>
                    </mxGeometry>
                </mxCell>
                <mxCell id="18" value="" style="endArrow=none;html=1;entryX=0;entryY=0;entryDx=0;entryDy=0;exitX=1;exitY=1;exitDx=0;exitDy=0;" parent="1" source="3" target="7" edge="1">
                    <mxGeometry width="50" height="50" relative="1" as="geometry">
                        <mxPoint x="275.6066017177982" y="204.39339828220182" as="sourcePoint"/>
                        <mxPoint x="304.3933982822018" y="155.60660171779818" as="targetPoint"/>
                    </mxGeometry>
                </mxCell>
                <mxCell id="19" value="" style="endArrow=none;html=1;entryX=1;entryY=1;entryDx=0;entryDy=0;exitX=0;exitY=0;exitDx=0;exitDy=0;" parent="1" source="8" target="2" edge="1">
                    <mxGeometry width="50" height="50" relative="1" as="geometry">
                        <mxPoint x="285.6066017177982" y="214.39339828220182" as="sourcePoint"/>
                        <mxPoint x="314.3933982822018" y="165.60660171779818" as="targetPoint"/>
                    </mxGeometry>
                </mxCell>
                <mxCell id="20" value="" style="endArrow=none;html=1;entryX=1;entryY=0.5;entryDx=0;entryDy=0;exitX=0;exitY=0;exitDx=0;exitDy=0;" parent="1" source="9" target="2" edge="1">
                    <mxGeometry width="50" height="50" relative="1" as="geometry">
                        <mxPoint x="295.6066017177982" y="224.39339828220182" as="sourcePoint"/>
                        <mxPoint x="324.3933982822018" y="175.60660171779818" as="targetPoint"/>
                    </mxGeometry>
                </mxCell>
                <mxCell id="21" value="" style="endArrow=none;html=1;entryX=1;entryY=0.5;entryDx=0;entryDy=0;exitX=0;exitY=0.5;exitDx=0;exitDy=0;" parent="1" source="9" target="8" edge="1">
                    <mxGeometry width="50" height="50" relative="1" as="geometry">
                        <mxPoint x="305.6066017177982" y="234.39339828220182" as="sourcePoint"/>
                        <mxPoint x="334.3933982822018" y="185.60660171779818" as="targetPoint"/>
                    </mxGeometry>
                </mxCell>
                <mxCell id="22" value="" style="endArrow=none;html=1;entryX=1;entryY=1;entryDx=0;entryDy=0;exitX=0;exitY=0;exitDx=0;exitDy=0;" parent="1" source="10" target="8" edge="1">
                    <mxGeometry width="50" height="50" relative="1" as="geometry">
                        <mxPoint x="315.6066017177982" y="244.39339828220182" as="sourcePoint"/>
                        <mxPoint x="344.3933982822018" y="195.60660171779818" as="targetPoint"/>
                    </mxGeometry>
                </mxCell>
                <mxCell id="23" value="" style="endArrow=none;html=1;entryX=0;entryY=1;entryDx=0;entryDy=0;exitX=0.5;exitY=0;exitDx=0;exitDy=0;" parent="1" source="10" target="9" edge="1">
                    <mxGeometry width="50" height="50" relative="1" as="geometry">
                        <mxPoint x="325.6066017177982" y="254.39339828220182" as="sourcePoint"/>
                        <mxPoint x="354.3933982822018" y="205.60660171779818" as="targetPoint"/>
                    </mxGeometry>
                </mxCell>
                <mxCell id="25" value="H" style="ellipse;whiteSpace=wrap;html=1;aspect=fixed;" parent="1" vertex="1">
                    <mxGeometry x="460" y="240" width="30" height="30" as="geometry"/>
                </mxCell>
                <mxCell id="26" value="" style="endArrow=none;html=1;entryX=1;entryY=1;entryDx=0;entryDy=0;exitX=0.5;exitY=0;exitDx=0;exitDy=0;" parent="1" source="25" target="9" edge="1">
                    <mxGeometry width="50" height="50" relative="1" as="geometry">
                        <mxPoint x="345.6066017177982" y="274.3933982822018" as="sourcePoint"/>
                        <mxPoint x="374.3933982822018" y="225.60660171779818" as="targetPoint"/>
                    </mxGeometry>
                </mxCell>
                <mxCell id="28" value="当前图的样子" style="text;html=1;strokeColor=none;fillColor=none;align=center;verticalAlign=middle;whiteSpace=wrap;rounded=0;" parent="1" vertex="1">
                    <mxGeometry x="220" y="70" width="130" height="30" as="geometry"/>
                </mxCell>
                <mxCell id="29" value="1.A" style="ellipse;whiteSpace=wrap;html=1;aspect=fixed;" parent="1" vertex="1">
                    <mxGeometry x="280" y="420" width="30" height="30" as="geometry"/>
                </mxCell>
                <mxCell id="30" value="2.B" style="ellipse;whiteSpace=wrap;html=1;aspect=fixed;" parent="1" vertex="1">
                    <mxGeometry x="230" y="490" width="30" height="30" as="geometry"/>
                </mxCell>
                <mxCell id="31" value="5.E" style="ellipse;whiteSpace=wrap;html=1;aspect=fixed;" parent="1" vertex="1">
                    <mxGeometry x="180" y="560" width="30" height="30" as="geometry"/>
                </mxCell>
                <mxCell id="32" value="9.I" style="ellipse;whiteSpace=wrap;html=1;aspect=fixed;" parent="1" vertex="1">
                    <mxGeometry x="180" y="610" width="30" height="30" as="geometry"/>
                </mxCell>
                <mxCell id="33" value="6.F" style="ellipse;whiteSpace=wrap;html=1;aspect=fixed;" parent="1" vertex="1">
                    <mxGeometry x="270" y="560" width="30" height="30" as="geometry"/>
                </mxCell>
                <mxCell id="34" value="3.C" style="ellipse;whiteSpace=wrap;html=1;aspect=fixed;" parent="1" vertex="1">
                    <mxGeometry x="340" y="490" width="30" height="30" as="geometry"/>
                </mxCell>
                <mxCell id="35" value="4.D" style="ellipse;whiteSpace=wrap;html=1;aspect=fixed;" parent="1" vertex="1">
                    <mxGeometry x="440" y="490" width="30" height="30" as="geometry"/>
                </mxCell>
                <mxCell id="36" value="7.G" style="ellipse;whiteSpace=wrap;html=1;aspect=fixed;" parent="1" vertex="1">
                    <mxGeometry x="410" y="560" width="30" height="30" as="geometry"/>
                </mxCell>
                <mxCell id="37" value="" style="endArrow=none;html=1;entryX=0;entryY=1;entryDx=0;entryDy=0;exitX=1;exitY=0;exitDx=0;exitDy=0;" parent="1" source="30" target="29" edge="1">
                    <mxGeometry width="50" height="50" relative="1" as="geometry">
                        <mxPoint x="270" y="500" as="sourcePoint"/>
                        <mxPoint x="320" y="450" as="targetPoint"/>
                    </mxGeometry>
                </mxCell>
                <mxCell id="38" value="" style="endArrow=none;html=1;entryX=0;entryY=1;entryDx=0;entryDy=0;exitX=1;exitY=0;exitDx=0;exitDy=0;" parent="1" source="31" target="30" edge="1">
                    <mxGeometry width="50" height="50" relative="1" as="geometry">
                        <mxPoint x="265.6066017177982" y="504.3933982822018" as="sourcePoint"/>
                        <mxPoint x="294.3933982822018" y="455.6066017177982" as="targetPoint"/>
                    </mxGeometry>
                </mxCell>
                <mxCell id="39" value="" style="endArrow=none;html=1;entryX=0.5;entryY=0;entryDx=0;entryDy=0;exitX=0.5;exitY=1;exitDx=0;exitDy=0;" parent="1" source="31" target="32" edge="1">
                    <mxGeometry width="50" height="50" relative="1" as="geometry">
                        <mxPoint x="275.6066017177982" y="514.3933982822018" as="sourcePoint"/>
                        <mxPoint x="304.3933982822018" y="465.6066017177982" as="targetPoint"/>
                    </mxGeometry>
                </mxCell>
                <mxCell id="40" value="" style="endArrow=none;html=1;entryX=0;entryY=0;entryDx=0;entryDy=0;exitX=1;exitY=1;exitDx=0;exitDy=0;" parent="1" source="30" target="33" edge="1">
                    <mxGeometry width="50" height="50" relative="1" as="geometry">
                        <mxPoint x="285.6066017177982" y="524.3933982822018" as="sourcePoint"/>
                        <mxPoint x="314.3933982822018" y="475.6066017177982" as="targetPoint"/>
                    </mxGeometry>
                </mxCell>
                <mxCell id="41" value="" style="endArrow=none;html=1;entryX=1;entryY=1;entryDx=0;entryDy=0;exitX=0;exitY=0;exitDx=0;exitDy=0;" parent="1" source="34" target="29" edge="1">
                    <mxGeometry width="50" height="50" relative="1" as="geometry">
                        <mxPoint x="295.6066017177982" y="534.3933982822018" as="sourcePoint"/>
                        <mxPoint x="324.3933982822018" y="485.6066017177982" as="targetPoint"/>
                    </mxGeometry>
                </mxCell>
                <mxCell id="42" value="" style="endArrow=none;html=1;entryX=1;entryY=0.5;entryDx=0;entryDy=0;exitX=0;exitY=0;exitDx=0;exitDy=0;" parent="1" source="35" target="29" edge="1">
                    <mxGeometry width="50" height="50" relative="1" as="geometry">
                        <mxPoint x="305.6066017177982" y="544.3933982822018" as="sourcePoint"/>
                        <mxPoint x="334.3933982822018" y="495.6066017177982" as="targetPoint"/>
                    </mxGeometry>
                </mxCell>
                <mxCell id="43" value="" style="endArrow=none;html=1;entryX=1;entryY=0.5;entryDx=0;entryDy=0;exitX=0;exitY=0.5;exitDx=0;exitDy=0;" parent="1" source="35" target="34" edge="1">
                    <mxGeometry width="50" height="50" relative="1" as="geometry">
                        <mxPoint x="315.6066017177982" y="554.3933982822018" as="sourcePoint"/>
                        <mxPoint x="344.3933982822018" y="505.6066017177982" as="targetPoint"/>
                    </mxGeometry>
                </mxCell>
                <mxCell id="44" value="" style="endArrow=none;html=1;entryX=1;entryY=1;entryDx=0;entryDy=0;exitX=0;exitY=0;exitDx=0;exitDy=0;" parent="1" source="36" target="34" edge="1">
                    <mxGeometry width="50" height="50" relative="1" as="geometry">
                        <mxPoint x="325.6066017177982" y="564.3933982822018" as="sourcePoint"/>
                        <mxPoint x="354.3933982822018" y="515.6066017177982" as="targetPoint"/>
                    </mxGeometry>
                </mxCell>
                <mxCell id="45" value="" style="endArrow=none;html=1;entryX=0;entryY=1;entryDx=0;entryDy=0;exitX=0.5;exitY=0;exitDx=0;exitDy=0;" parent="1" source="36" target="35" edge="1">
                    <mxGeometry width="50" height="50" relative="1" as="geometry">
                        <mxPoint x="335.6066017177982" y="574.3933982822018" as="sourcePoint"/>
                        <mxPoint x="364.3933982822018" y="525.6066017177982" as="targetPoint"/>
                    </mxGeometry>
                </mxCell>
                <mxCell id="46" value="8.H" style="ellipse;whiteSpace=wrap;html=1;aspect=fixed;" parent="1" vertex="1">
                    <mxGeometry x="470" y="560" width="30" height="30" as="geometry"/>
                </mxCell>
                <mxCell id="47" value="" style="endArrow=none;html=1;entryX=1;entryY=1;entryDx=0;entryDy=0;exitX=0.5;exitY=0;exitDx=0;exitDy=0;" parent="1" source="46" target="35" edge="1">
                    <mxGeometry width="50" height="50" relative="1" as="geometry">
                        <mxPoint x="355.6066017177982" y="594.3933982822018" as="sourcePoint"/>
                        <mxPoint x="384.3933982822018" y="545.6066017177982" as="targetPoint"/>
                    </mxGeometry>
                </mxCell>
                <mxCell id="48" value="广度优先遍历" style="text;html=1;strokeColor=none;fillColor=none;align=center;verticalAlign=middle;whiteSpace=wrap;rounded=0;" parent="1" vertex="1">
                    <mxGeometry x="220" y="390" width="130" height="30" as="geometry"/>
                </mxCell>
                <mxCell id="49" value="1.A" style="ellipse;whiteSpace=wrap;html=1;aspect=fixed;" parent="1" vertex="1">
                    <mxGeometry x="280" y="780" width="30" height="30" as="geometry"/>
                </mxCell>
                <mxCell id="50" value="2.B" style="ellipse;whiteSpace=wrap;html=1;aspect=fixed;" parent="1" vertex="1">
                    <mxGeometry x="230" y="850" width="30" height="30" as="geometry"/>
                </mxCell>
                <mxCell id="51" value="3.E" style="ellipse;whiteSpace=wrap;html=1;aspect=fixed;" parent="1" vertex="1">
                    <mxGeometry x="180" y="920" width="30" height="30" as="geometry"/>
                </mxCell>
                <mxCell id="52" value="4.I" style="ellipse;whiteSpace=wrap;html=1;aspect=fixed;" parent="1" vertex="1">
                    <mxGeometry x="180" y="1020" width="30" height="30" as="geometry"/>
                </mxCell>
                <mxCell id="53" value="5.F" style="ellipse;whiteSpace=wrap;html=1;aspect=fixed;" parent="1" vertex="1">
                    <mxGeometry x="270" y="920" width="30" height="30" as="geometry"/>
                </mxCell>
                <mxCell id="54" value="6.C" style="ellipse;whiteSpace=wrap;html=1;aspect=fixed;" parent="1" vertex="1">
                    <mxGeometry x="340" y="850" width="30" height="30" as="geometry"/>
                </mxCell>
                <mxCell id="55" value="8.D" style="ellipse;whiteSpace=wrap;html=1;aspect=fixed;" parent="1" vertex="1">
                    <mxGeometry x="440" y="850" width="30" height="30" as="geometry"/>
                </mxCell>
                <mxCell id="56" value="7.G" style="ellipse;whiteSpace=wrap;html=1;aspect=fixed;" parent="1" vertex="1">
                    <mxGeometry x="410" y="920" width="30" height="30" as="geometry"/>
                </mxCell>
                <mxCell id="57" value="" style="endArrow=none;html=1;entryX=0;entryY=1;entryDx=0;entryDy=0;exitX=1;exitY=0;exitDx=0;exitDy=0;" parent="1" source="50" target="49" edge="1">
                    <mxGeometry width="50" height="50" relative="1" as="geometry">
                        <mxPoint x="270" y="860" as="sourcePoint"/>
                        <mxPoint x="320" y="810" as="targetPoint"/>
                    </mxGeometry>
                </mxCell>
                <mxCell id="58" value="" style="endArrow=none;html=1;entryX=0;entryY=1;entryDx=0;entryDy=0;exitX=1;exitY=0;exitDx=0;exitDy=0;" parent="1" source="51" target="50" edge="1">
                    <mxGeometry width="50" height="50" relative="1" as="geometry">
                        <mxPoint x="265.6066017177982" y="864.3933982822018" as="sourcePoint"/>
                        <mxPoint x="294.3933982822018" y="815.6066017177982" as="targetPoint"/>
                    </mxGeometry>
                </mxCell>
                <mxCell id="59" value="" style="endArrow=none;html=1;entryX=0.5;entryY=0;entryDx=0;entryDy=0;exitX=0.5;exitY=1;exitDx=0;exitDy=0;" parent="1" source="51" target="52" edge="1">
                    <mxGeometry width="50" height="50" relative="1" as="geometry">
                        <mxPoint x="275.6066017177982" y="874.3933982822018" as="sourcePoint"/>
                        <mxPoint x="304.3933982822018" y="825.6066017177982" as="targetPoint"/>
                    </mxGeometry>
                </mxCell>
                <mxCell id="60" value="" style="endArrow=none;html=1;entryX=0;entryY=0;entryDx=0;entryDy=0;exitX=1;exitY=1;exitDx=0;exitDy=0;" parent="1" source="50" target="53" edge="1">
                    <mxGeometry width="50" height="50" relative="1" as="geometry">
                        <mxPoint x="285.6066017177982" y="884.3933982822018" as="sourcePoint"/>
                        <mxPoint x="314.3933982822018" y="835.6066017177982" as="targetPoint"/>
                    </mxGeometry>
                </mxCell>
                <mxCell id="61" value="" style="endArrow=none;html=1;entryX=1;entryY=1;entryDx=0;entryDy=0;exitX=0;exitY=0;exitDx=0;exitDy=0;" parent="1" source="54" target="49" edge="1">
                    <mxGeometry width="50" height="50" relative="1" as="geometry">
                        <mxPoint x="295.6066017177982" y="894.3933982822018" as="sourcePoint"/>
                        <mxPoint x="324.3933982822018" y="845.6066017177982" as="targetPoint"/>
                    </mxGeometry>
                </mxCell>
                <mxCell id="62" value="" style="endArrow=none;html=1;entryX=1;entryY=0.5;entryDx=0;entryDy=0;exitX=0;exitY=0;exitDx=0;exitDy=0;" parent="1" source="55" target="49" edge="1">
                    <mxGeometry width="50" height="50" relative="1" as="geometry">
                        <mxPoint x="305.6066017177982" y="904.3933982822018" as="sourcePoint"/>
                        <mxPoint x="334.3933982822018" y="855.6066017177982" as="targetPoint"/>
                    </mxGeometry>
                </mxCell>
                <mxCell id="63" value="" style="endArrow=none;html=1;entryX=1;entryY=0.5;entryDx=0;entryDy=0;exitX=0;exitY=0.5;exitDx=0;exitDy=0;" parent="1" source="55" target="54" edge="1">
                    <mxGeometry width="50" height="50" relative="1" as="geometry">
                        <mxPoint x="315.6066017177982" y="914.3933982822018" as="sourcePoint"/>
                        <mxPoint x="344.3933982822018" y="865.6066017177982" as="targetPoint"/>
                    </mxGeometry>
                </mxCell>
                <mxCell id="64" value="" style="endArrow=none;html=1;entryX=1;entryY=1;entryDx=0;entryDy=0;exitX=0;exitY=0;exitDx=0;exitDy=0;" parent="1" source="56" target="54" edge="1">
                    <mxGeometry width="50" height="50" relative="1" as="geometry">
                        <mxPoint x="325.6066017177982" y="924.3933982822018" as="sourcePoint"/>
                        <mxPoint x="354.3933982822018" y="875.6066017177982" as="targetPoint"/>
                    </mxGeometry>
                </mxCell>
                <mxCell id="65" value="" style="endArrow=none;html=1;entryX=0;entryY=1;entryDx=0;entryDy=0;exitX=0.5;exitY=0;exitDx=0;exitDy=0;" parent="1" source="56" target="55" edge="1">
                    <mxGeometry width="50" height="50" relative="1" as="geometry">
                        <mxPoint x="335.6066017177982" y="934.3933982822018" as="sourcePoint"/>
                        <mxPoint x="364.3933982822018" y="885.6066017177982" as="targetPoint"/>
                    </mxGeometry>
                </mxCell>
                <mxCell id="66" value="9.H" style="ellipse;whiteSpace=wrap;html=1;aspect=fixed;" parent="1" vertex="1">
                    <mxGeometry x="470" y="920" width="30" height="30" as="geometry"/>
                </mxCell>
                <mxCell id="67" value="" style="endArrow=none;html=1;entryX=1;entryY=1;entryDx=0;entryDy=0;exitX=0.5;exitY=0;exitDx=0;exitDy=0;" parent="1" source="66" target="55" edge="1">
                    <mxGeometry width="50" height="50" relative="1" as="geometry">
                        <mxPoint x="355.6066017177982" y="954.3933982822018" as="sourcePoint"/>
                        <mxPoint x="384.3933982822018" y="905.6066017177982" as="targetPoint"/>
                    </mxGeometry>
                </mxCell>
                <mxCell id="68" value="深度优先遍历" style="text;html=1;strokeColor=none;fillColor=none;align=center;verticalAlign=middle;whiteSpace=wrap;rounded=0;" parent="1" vertex="1">
                    <mxGeometry x="230" y="750" width="130" height="30" as="geometry"/>
                </mxCell>
            </root>
        </mxGraphModel>
    </diagram>
</mxfile>
